<?xml version="1.0" encoding="utf-8"?>
<svg xmlns="http://www.w3.org/2000/svg" width="702.49975" height="680.4175" viewBox="0 0 702.49975 680.4175" role="img" artist="Katerina Limpitsouni" source="https://undraw.co/">
  <defs>
    <path id="path-0" d="M 33.633 219.939 C 39 219.939 52.507 217.793 57.218 217.995 C 84.335 219.161 104.759 226.355 122.428 226.355 C 137.827 227.44 148.588 233.575 160.974 233.575 C 173.515 233.575 192.489 236.929 199.82 236.929 C 211.324 236.929 220.567 248.401 230.692 248.401 C 239.337 250.572 231.542 238.292 236.367 238.292 C 241.355 238.292 247.223 242.633 250.474 242.633 L 251.559 243.718 C 253.371 250.963 256.086 255.128 258.07 261.08" style="fill: none;"/>
    <path id="path-1" d="M 13.707 454.621 C 22.016 458.782 30.183 458.769 34.446 458.769 C 40.414 462.663 59.572 458.821 59.274 454.129 C 80.354 462.924 81.523 455.986 80.317 454.129 C 73.917 444.273 103.761 457.79 110.328 457.79 C 118.819 457.79 131.673 448.945 137.048 448.945 C 147.072 447.908 154.717 456.695 161.63 456.695 C 168.005 456.695 160.918 455.907 167.114 457.972 C 178.292 459.009 204.695 458.033 212.38 455.471 C 214.928 453.585 224.823 461.351 224.823 459.929 C 228.687 458.892 211.379 448.781 213.834 446.326 C 218.183 443.014 233.03 442.962 237.684 445.289 C 250.304 445.289 261.351 443.215 269.828 443.215 C 274.362 443.215 285.923 430.188 286.419 428.698 C 288.062 422.731 296.788 416.009 296.788 411.07 L 296.788 410.033 C 298.83 407.991 308.195 398.103 308.195 396.553" style="fill: none;"/>
    <path id="path-2" d="M 25.337 459.574 C 32.136 458.842 36.413 459.574 39.982 459.574 C 49.993 459.574 58.954 458.087 65.611 460.307 C 76.107 460.307 83.674 460.307 91.24 460.307 C 99.783 460.307 106.129 460.307 112.476 460.307 C 119.798 461.039 125.656 461.039 131.515 461.039 C 139.224 461.039 142.412 459.574 146.16 459.574 C 153.577 458.384 158.51 456.821 164.466 456.645 C 175.942 456.307 183.168 456.989 185.702 454.449 C 191.072 454.449 192.048 452.984 195.953 452.984 C 201.351 453.716 204.303 455.913 208.402 455.913 C 212.795 455.913 216.457 455.913 220.118 455.913 L 221.582 455.913 C 222.559 455.913 223.535 455.913 224.512 455.913" style="fill: none;"/>
    <path id="path-3" d="M 79.524 484.634 C 95.345 484.634 113.269 482.405 125.305 482.405 C 153.217 481.379 166.31 479.191 185.865 479.191 C 192.878 477.727 198.867 482.748 202.762 481.45 C 204.845 480.099 209.265 480.973 211.331 480.973 L 212.063 480.973 C 214.26 480.973 216.457 480.973 218.653 480.973" style="fill: none;"/>
    <path id="path-4" d="M 127.75 286.577 C 146.431 286.577 200.666 292.213 210.416 292.213 C 226.356 295.183 242.869 297.85 254.567 297.85 C 264.648 297.85 270.728 298.789 277.112 298.789 C 285.88 298.789 293.708 298.789 301.536 298.789 C 315.519 298.789 333.114 298.139 341.93 302.547 C 352.09 306.218 365.684 307.244 373.869 307.244 C 385.802 307.244 396.018 310.062 406.747 310.062 L 408.626 311.001 C 410.192 311.001 411.757 311.001 413.323 311.001" style="fill: none;"/>
  </defs>
  <path d="M463.61382,139.78498c-15.16108-52.71309-70.1841-83.15508-122.89755-67.9939-52.71345,15.16118-83.15544,70.1842-67.99436,122.89729,12.29564,42.75033,50.8103,70.84705,93.04717,71.85558l17.52764,7.37261-24.84004,92.23421,128.09716,24.13425,52.06041-134s-75.56859,1.41544-94.8601-24.63533c20.84-24.5008,29.41663-58.63637,19.85966-91.86471Z" fill="#ed9da0"/>
  <polygon points="1.99975 601.82162 201.37147 680.4175 394.99975 651.82162 190.99975 591.82162 1.99975 601.82162" fill="#090814"/>
  <path d="M189.89585,569.41563l190.76308-95.21857,40.66744,61.80834-205.12064,85.84178c-4.48136,14.24205-15.63984,27.53807-31.63764,35.5657-27.99204,14.04623-60.10723,6.6534-71.73176-16.51241-11.62444-23.16586,1.64385-53.33182,29.63598-67.3781,15.99789-8.02767,33.32711-9.02603,47.42355-4.10675Z" fill="#ed9da0"/>
  <path d="M513.61426,254.28502s-18.61451,96.5366-83.61451,94.5366-53-48-53-48l-61.3954,34.5s-26.6046,37.5-26.6046,84.5l-19,91-27,28,80,63,41-58,41,124,297.5,12.59588-5.5-255.59588s-16-123-84-148-99.38549-22.5366-99.38549-22.5366Z" fill="#3B82F6"/>
  <path d="M348.13975,99.77977s-38.98609,35.27313-78.90043,29.70369c-39.91433-5.56944-47.34026-19.49305-47.34026-25.06249,0,0,0,1.85648,11.13888,5.56944l4.6412-39.91433s5.56944,10.46894,25.99073,14.05275c0,0-17.63657-7.36881,0-21.84966,0,0,9.2824,7.79691,17.63657,7.79691,0,0,46.41202-63.12034,138.30781-23.20601v-16.58505l8.35416,21.22625,10.77874-.93728,10.57079-.9192s23.20601,26.91897,21.34953,45.48378,33.35664,111.81151-27.4131,140.37562c0,0,14.41773-82.82472-10.64476-63.33168-25.06249,19.49305-40.84257-11.13888-40.84257-11.13888l-43.6273-61.26386Z" fill="#090814"/>
  <path d="M22.74902,507.9608c-5.64551,0-10.96484-2.13867-15.06152-6.07666-4.3125-4.14404-6.6875-9.7207-6.6875-15.70166V199.44713c0-6.41553,2.80762-12.47314,7.7041-16.61914,4.89453-4.146,11.32617-5.92041,17.66016-4.86133l223.81445,37.37256c10.61719,1.77246,18.26758,10.87207,18.19141,21.63623l-1.72461,240.54639c-.08398,11.65283-9.27051,21.14258-20.91406,21.60449l-.01953-.49951.01953.49951-222.09082,8.81641c-.29785.01172-.59473.01807-.8916.01807Z" fill="#fff" opacity=".5"/>
  <path d="M22.74902,508.9608c-5.89551,0-11.49121-2.25732-15.75488-6.35596-4.50977-4.33398-6.99414-10.1665-6.99414-16.42236V199.44713c0-6.71094,2.93652-13.04639,8.05762-17.38232,5.12012-4.33789,11.85156-6.18945,18.47168-5.08447l223.81445,37.37256c11.10449,1.854,19.10645,11.37109,19.02637,22.62939l-1.72461,240.54687c-.08594,11.85303-9.17578,21.56641-20.87695,22.53516l.00098.02148-223.08887,8.85596c-.31152.01221-.62207.01904-.93164.01904ZM22.76172,178.66735c-4.87695,0-9.62695,1.71777-13.41113,4.92383-4.67188,3.95508-7.35059,9.73438-7.35059,15.85596v286.73535c0,5.70654,2.26562,11.02686,6.38086,14.98047,4.09473,3.93652,9.5498,6.00977,15.2207,5.78076l222.08984-8.81641.02051.49951-.02051-.49951c11.10938-.44092,19.87402-9.49512,19.9541-20.61279l1.72461-240.54639c.07227-10.27002-7.22656-18.95166-17.35645-20.64258L26.19922,178.95299c-1.14551-.19141-2.29492-.28564-3.4375-.28564Z" fill="#090814"/>
  <path d="M100.32227,359.14342h-.05371l-67.14453-.30371c-6.96094-.03125-12.62402-5.72021-12.62402-12.68164v-84.34619c0-3.59375,1.5332-7.03223,4.20703-9.43408,2.66797-2.39795,6.25391-3.55322,9.82617-3.17578l67.14062,7.20312c6.45898.69287,11.3291,6.11377,11.3291,12.60938v77.44727c0,3.39844-1.32617,6.59033-3.73535,8.98779-2.39258,2.38184-5.56934,3.69385-8.94531,3.69385ZM33.19238,251.13121c-2.62695,0-5.18262.96729-7.14844,2.73438-2.25293,2.02295-3.54395,4.91943-3.54395,7.94629v84.34619c0,5.86377,4.77051,10.65527,10.63379,10.68164l67.13965.30371.04883,1v-1c2.84375,0,5.51953-1.10498,7.53516-3.11133,2.02832-2.01953,3.14551-4.70801,3.14551-7.57031v-77.44727c0-5.47119-4.10254-10.0376-9.54199-10.62109l-67.13965-7.20264c-.37695-.03955-.75391-.05957-1.12891-.05957Z" fill="#090814"/>
  <path d="M232.31738,358.82164h-101.63574c-6.99316,0-12.68164-5.68896-12.68164-12.68213v-70.69775c0-3.52979,1.48828-6.92725,4.08301-9.32129,2.59082-2.3916,6.10059-3.59619,9.61816-3.31982l101.63574,8.19678c6.54004.52734,11.66309,6.07959,11.66309,12.64062v62.50146c0,6.99316-5.68945,12.68213-12.68262,12.68213ZM130.69336,264.76012c-2.6748,0-5.2793,1.00781-7.25488,2.83008-2.18457,2.0166-3.43848,4.87842-3.43848,7.85156v70.69775c0,5.89014,4.79199,10.68213,10.68164,10.68213h101.63574c5.89062,0,10.68262-4.79199,10.68262-10.68213v-62.50146c0-5.52637-4.31543-10.20312-9.82324-10.64746l-101.63574-8.19678c-.2832-.02246-.56641-.03369-.84766-.03369Z" fill="#090814"/>
  <path d="M32.37109,438.18053c-3.13867,0-6.09961-1.21484-8.33594-3.42139-2.2793-2.24854-3.53516-5.25098-3.53516-8.4541v-42.66699c0-6.54834,5.32715-11.87549,11.875-11.87549h53.24902c6.54883,0,11.87598,5.32715,11.87598,11.87549v41.94727c0,6.45996-5.25488,11.78711-11.71484,11.87451l-53.41406.7207ZM32.375,373.76256c-5.44531,0-9.875,4.43018-9.875,9.87549v42.66699c0,2.66357,1.04395,5.16016,2.93945,7.03027,1.86035,1.83496,4.32129,2.84521,6.93164,2.84521l.13867-.00098,53.24805-.71973c5.37207-.07275,9.74219-4.50244,9.74219-9.87451v-41.94727c0-5.44531-4.43066-9.87549-9.87598-9.87549h-53.24902Z" fill="#090814"/>
  <path d="M119.42285,435.41002c-3.12305,0-6.07324-1.20557-8.30664-3.39453-2.29688-2.25146-3.5625-5.26318-3.5625-8.48096v-39.89648c0-6.54834,5.32715-11.87549,11.87598-11.87549h44.19434c6.54883,0,11.87598,5.32715,11.87598,11.87549v39.01318c0,6.41846-5.22168,11.74463-11.63965,11.87354l-44.4375.88525ZM119.42969,373.76256c-5.44531,0-9.87598,4.43018-9.87598,9.87549v39.89648c0,2.67578,1.05176,5.18066,2.96289,7.05225,1.85742,1.8208,4.30957,2.82324,6.90625,2.82324l.2041-.00195,44.19434-.8833c5.33691-.10645,9.67871-4.53613,9.67871-9.87354v-39.01318c0-5.44531-4.43066-9.87549-9.87598-9.87549h-44.19434Z" fill="#090814"/>
  <path d="M194.54688,432.36266c-3.1123,0-6.05469-1.19922-8.28613-3.37646-2.30957-2.25391-3.58203-5.27246-3.58203-8.49902v-36.84912c0-6.54834,5.32715-11.87549,11.87598-11.87549h38.16113c6.49023,0,11.81738,5.27979,11.875,11.77002l.31836,35.90723c.05664,6.44629-5.13965,11.81934-11.58398,11.97705l-38.77832.9458ZM194.55469,373.76256c-5.44531,0-9.87598,4.43018-9.87598,9.87549v36.84912c0,2.68311,1.05762,5.19336,2.97852,7.06738,1.85645,1.81104,4.30273,2.80811,6.88965,2.80811l.25293-.00342,38.47656-.94141c5.3584-.13135,9.67969-4.59961,9.63281-9.96045l-.31836-35.90723c-.04785-5.39697-4.47754-9.7876-9.875-9.7876h-38.16113Z" fill="#090814"/>
  <polygon points="34.49975 390.32162 34.49975 395.16903 77.31507 395.16903 78.09016 390.32162 34.49975 390.32162" fill="#090814"/>
  <polygon points="79.71875 343.94615 56.41699 314.81871 31.20703 340.02867 29.79297 338.61461 56.58301 311.82457 81.28125 342.69713 79.71875 343.94615" fill="#090814"/>
  <polygon points="95.16309 341.98571 80.29492 319.24645 69.16211 329.07164 67.83789 327.57164 80.70508 316.21813 96.83691 340.89098 95.16309 341.98571" fill="#090814"/>
  <path d="M 535.099 156.942 C 530.066 156.942 525.167 155.185 521.239 151.896 C 516.32 147.778 513.5 141.737 513.5 135.322 L 513.5 59.419 C 513.5 49.481 520.233 40.857 529.875 38.447 L 653.048 7.654 C 659.485 6.043 666.199 7.441 671.461 11.484 C 676.724 15.527 679.802 21.652 679.905 28.288 L 681.226 112.768 C 681.393 123.424 673.898 132.515 663.408 134.387 L 538.915 156.603 C 537.644 156.83 536.366 156.942 535.099 156.942 Z" fill="#fff" opacity=".5"/>
  <path d="M535.09863,151.94176c-5.28613,0-10.43652-1.875-14.50098-5.2793-5.14648-4.30811-8.09766-10.62842-8.09766-17.34082V53.4193c0-10.39795,7.04492-19.4209,17.13281-21.94238L652.80566.68346c6.7334-1.68311,13.75781-.22412,19.26465,4.00732,5.50586,4.23096,8.72656,10.63916,8.83496,17.58154l1.32031,84.48047c.1748,11.14795-7.66504,20.66064-18.6416,22.61865l-124.49316,22.21582c-1.31738.23535-2.66016.35449-3.99219.35449ZM658.33008,1.99987c-1.67676,0-3.36816.20557-5.04004.62402l-123.17285,30.79346c-9.19531,2.29834-15.61719,10.52344-15.61719,20.00195v75.90234c0,6.11865,2.69043,11.88037,7.38086,15.80762,4.64062,3.88623,10.89648,5.5542,16.8584,4.48926l124.49316-22.21582c10.00586-1.78516,17.15234-10.45654,16.99316-20.61865l-1.32031-84.48047c-.09863-6.32861-3.03418-12.17041-8.05371-16.02686-3.65332-2.80713-8.03809-4.27686-12.52148-4.27686Z" fill="#090814"/>
  <polygon points="551.99975 54.82162 551.99975 62.76247 631.99975 45.82162 634.99975 36.82162 551.99975 54.82162" fill="#090814"/>
  <polygon points="551.99975 73.82162 551.99975 81.76247 631.99975 64.82162 634.99975 55.82162 551.99975 73.82162" fill="#090814"/>
  <polygon points="551.99975 92.82162 551.99975 100.76247 631.99975 83.82162 634.99975 74.82162 551.99975 92.82162" fill="#090814"/>
  <polygon points="551.99975 111.82162 551.99975 119.76247 631.99975 102.82162 634.99975 93.82162 551.99975 111.82162" fill="#090814"/>
  <path d="M342.89815,593.15893l213.16055-4.43927,10.31048,73.26531-222.12536-10.17907c-10.14425,10.95504-25.91874,18.19804-43.81299,18.60864-31.3103.7184-57.17401-19.70482-57.76861-45.6168-.59451-25.91199,24.30515-47.49995,55.61555-48.21835,17.89434-.4106,33.98432,6.10179,44.62037,16.57954Z" fill="#ed9da0"/>
  <path d="M554.99975,430.82162s-7,44,14,59c0,0-7,54,10,71,0,0-31.24,1.26492-25.12,17.63246,0,0-45.88-7.63246-39.88,11.36754,0,0,42.45893,50.95905,32.22946,83.97953l138.77054-6.97953,15.48805-79.90319" fill="#3B82F6"/>
  <text style="fill: rgb(51, 51, 51); font-family: Arial, sans-serif; font-size: 28px; white-space: pre;" transform="matrix(1, 0, 0, 1, -3.964251, 7.928501)"><textPath href="#path-0">Build with Zelo</textPath></text>
  <text style="white-space: pre; fill: rgb(51, 51, 51); font-family: Arial, sans-serif; font-size: 28px; transform-box: fill-box; transform-origin: 50% 50%;" x="132.914" y="280.823" transform="matrix(0.827133, 0.024204, -0.022703, 0.775754, -9.597878, 12.058846)">Creative<tspan x="132.91400146484375" dy="1em">​</tspan>Digital<tspan x="132.91400146484375" dy="1em">​</tspan>Solutions</text>
</svg>